<?xml version="1.0" encoding="UTF-8" standalone="no"?>
<svg
   xmlns:dc="http://purl.org/dc/elements/1.1/"
   xmlns:cc="http://creativecommons.org/ns#"
   xmlns:rdf="http://www.w3.org/1999/02/22-rdf-syntax-ns#"
   xmlns:svg="http://www.w3.org/2000/svg"
   xmlns="http://www.w3.org/2000/svg"
   xmlns:sodipodi="http://sodipodi.sourceforge.net/DTD/sodipodi-0.dtd"
   xmlns:inkscape="http://www.inkscape.org/namespaces/inkscape"
   version="1.1"
   width="128"
   height="72"
   viewBox="0 0 128 72"
   preserveAspectRatio="none"
   id="svg2"
   inkscape:version="0.91 r13725"
   sodipodi:docname="logo.svg">
  <sodipodi:namedview
     pagecolor="#ffffff"
     bordercolor="#666666"
     borderopacity="1"
     objecttolerance="10"
     gridtolerance="10"
     guidetolerance="10"
     inkscape:pageopacity="0"
     inkscape:pageshadow="2"
     inkscape:window-width="1871"
     inkscape:window-height="1056"
     id="namedview14"
     showgrid="false"
     showguides="true"
     inkscape:guide-bbox="true"
     inkscape:zoom="4.578125"
     inkscape:cx="103.92992"
     inkscape:cy="1.7518081"
     inkscape:window-x="1073"
     inkscape:window-y="24"
     inkscape:window-maximized="1"
     inkscape:current-layer="text4136">
    <sodipodi:guide
       position="13.16041,2.0750853"
       orientation="1,0"
       id="guide4150" />
  </sodipodi:namedview>
  <metadata
     id="metadata12">
    <rdf:RDF>
      <cc:Work
         rdf:about="">
        <dc:format>image/svg+xml</dc:format>
        <dc:type
           rdf:resource="http://purl.org/dc/dcmitype/StillImage" />
        <dc:title />
      </cc:Work>
    </rdf:RDF>
  </metadata>
  <defs
     id="defs10" />
  <path
     inkscape:connector-curvature="0"
     style="fill:#004890;fill-opacity:1"
     d="m 49.041502,23.596493 0,-23.5964918766944 35.816108,0 35.81612,0 0,23.5964918766944 0,23.596505 -35.81612,0 -35.816108,0 z m 21.650465,18.522595 c 2.680597,-1.002938 5.345598,-3.643964 6.183413,-6.127751 0.695613,-2.06226 0.716019,-5.391842 0.04517,-7.376699 -0.759584,-2.247497 -3.9175,-5.161975 -7.101191,-6.553791 -8.964774,-3.919093 -10.398408,-5.067677 -10.349668,-8.291767 0.05852,-3.8686924 2.101693,-5.7631188 6.215745,-5.7631188 3.884756,0 5.819906,1.6178082 6.930238,5.7937708 0.396929,1.492846 0.648728,1.790821 1.51332,1.790821 1.029038,0 1.037188,-0.0313 1.037188,-3.993278 0,-4.7703953 -0.140383,-4.9281929 -5.32524,-5.9907716 -8.837475,-1.8111395 -15.822424,2.4914855 -15.919698,9.8062626 -0.02853,2.147037 0.170298,2.890265 1.230056,4.597054 1.50982,2.431754 4.187786,4.36469 8.138502,5.87434 1.597676,0.610507 3.798025,1.67643 4.889648,2.368718 4.564047,2.894437 4.689909,9.2676 0.228583,11.574633 -1.772246,0.916462 -5.576468,0.797055 -7.606832,-0.238766 C 58.868855,38.602927 56.830563,35.711434 56.1368,32.971887 55.731202,31.37028 55.551442,31.18107 54.435448,31.18107 l -1.247847,0 0.296537,4.318997 c 0.163047,2.375454 0.468685,4.535246 0.679082,4.799541 0.5738,0.720726 4.471398,2.303884 6.652031,2.701934 2.770976,0.505832 7.23128,0.107299 9.876704,-0.882469 z m 39.565683,0.19641 c 4.30852,-1.11435 4.43067,-1.22166 4.7028,-4.131569 0.13262,-1.418177 0.28727,-3.526567 0.34365,-4.685326 0.0954,-1.959677 0.0333,-2.106832 -0.88779,-2.106832 -0.79693,0 -1.14201,0.39956 -1.76697,2.04596 -1.04092,2.74221 -2.33825,4.561988 -4.12579,5.787313 -1.96904,1.34974 -7.59843,1.683665 -10.392795,0.616498 -2.167649,-0.827846 -4.995278,-3.74255 -6.075493,-6.262611 -2.483576,-5.79393 -2.21037,-15.155891 0.580097,-19.878842 2.405136,-4.0707487 5.362248,-5.74095 10.164451,-5.74095 5.29548,0 7.9418,1.7730619 9.09794,6.095728 0.46439,1.736316 0.65614,1.95705 1.70013,1.95705 l 1.17671,0 0,-4.408033 0,-4.4080136 -2.21218,-0.6674014 C 104.49672,4.095102 95.252191,5.1213705 90.359187,8.993336 c -5.287218,4.183923 -7.843677,12.664175 -6.177616,20.492328 1.673541,7.863338 6.010282,12.073262 13.884452,13.47847 2.781257,0.496331 9.055307,0.162533 12.191617,-0.648636 z m -89.760693,-0.1395 C 17.228559,41.130501 14.000751,37.257862 12.824024,34.459673 12.244272,32.954231 12.038807,26.48423 11.961301,21.910994 11.84551,15.07434 11.603992,9.25464 11.424767,8.9783506 11.245558,8.7020415 10.250082,8.348682 9.2125991,8.1931152 7.7449916,7.9730267 7.3262735,7.7337926 7.3262735,7.115357 c 0,-0.7486637 0.4288607,-0.7948955 7.3738985,-0.7948955 6.846209,0 7.373916,0.054877 7.373916,0.7658322 0,0.5930652 -0.49908,0.8544881 -2.212185,1.1587629 l -2.212168,0.3928991 0,12.8516583 c 0,12.364592 0.03443,12.915546 0.90949,14.537142 0.500223,0.927006 1.462572,2.210628 2.138555,2.852516 3.123615,2.966023 9.129063,2.522661 11.99702,-0.885707 2.092568,-2.486881 2.230946,-3.536705 2.230946,-16.925315 l 0,-12.4302943 -2.212165,-0.3752669 c -1.74094,-0.2953479 -2.212189,-0.5421936 -2.212189,-1.158759 0,-0.7338844 0.466835,-0.7834723 7.373918,-0.7834723 6.945055,0 7.373896,0.0462 7.373896,0.7948955 0,0.6189705 -0.419355,0.8577728 -1.895049,1.0790579 -1.214682,0.1821457 -2.04672,0.5675838 -2.317502,1.0735502 -0.251327,0.4696048 -0.422473,5.2303949 -0.422473,11.7518699 0,6.223182 -0.195697,11.875013 -0.452674,13.073272 -0.878595,4.096725 -3.619495,6.921775 -7.968748,8.213357 -3.091592,0.918111 -8.62081,0.853169 -11.695803,-0.130517 z"
     id="path3416" />
  <rect
     y="44.220341"
     x="49.031727"
     height="27.779661"
     width="71.637039"
     id="rect3334"
     style="fill:#004890;fill-opacity:1;fill-rule:evenodd;stroke:none;stroke-width:1px;stroke-linecap:butt;stroke-linejoin:miter;stroke-opacity:1" />
  <g
     style="font-style:normal;font-weight:normal;font-size:158.49095154px;line-height:125%;font-family:sans-serif;letter-spacing:0px;word-spacing:0px;fill:#000000;fill-opacity:1;stroke:none;stroke-width:1px;stroke-linecap:butt;stroke-linejoin:miter;stroke-opacity:1"
     id="text4136">
    <path
       d="m 53.687462,52.007584 q -0.369263,0 -0.662232,-0.07629 -0.292968,-0.07935 -0.497436,-0.247193 -0.201416,-0.170898 -0.308228,-0.436401 -0.106811,-0.268555 -0.106811,-0.650024 l 0,-2.426148 q 0,-0.137329 -0.04272,-0.219727 -0.03967,-0.08545 -0.109863,-0.131225 -0.07019,-0.04578 -0.164795,-0.05798 -0.09155,-0.01526 -0.195312,-0.01526 l -0.07935,0 0,-0.262451 1.818847,0 0,0.262451 -0.0824,0 q -0.10376,0 -0.198364,0.01526 -0.09461,0.01526 -0.164795,0.06409 -0.06714,0.04578 -0.109863,0.134278 -0.03967,0.0885 -0.03967,0.234985 l 0,2.438355 q 0,0.271606 0.07629,0.463867 0.07935,0.189209 0.216674,0.308227 0.140381,0.119019 0.32959,0.173951 0.192261,0.05493 0.421143,0.05493 0.271606,0 0.466919,-0.07324 0.198364,-0.07324 0.326538,-0.201416 0.131225,-0.131226 0.192261,-0.308228 0.06409,-0.180053 0.06409,-0.393676 l 0,-2.487183 q 0,-0.137329 -0.04272,-0.219727 -0.03967,-0.08545 -0.109863,-0.131225 -0.07019,-0.04578 -0.164795,-0.05798 -0.09155,-0.01526 -0.195313,-0.01526 l -0.07935,0 0,-0.262451 1.568603,0 0,0.262451 -0.0824,0 q -0.10376,0 -0.198365,0.01526 -0.0946,0.01526 -0.164795,0.06409 -0.06714,0.04578 -0.109863,0.134278 -0.03967,0.0885 -0.03967,0.234985 l 0,2.474976 q 0,0.311279 -0.100708,0.561523 -0.09766,0.247193 -0.292968,0.421143 -0.192261,0.170898 -0.479126,0.262451 -0.286866,0.09155 -0.65918,0.09155 z"
       style="font-style:normal;font-variant:normal;font-weight:normal;font-stretch:normal;font-size:6.25px;font-family:'Droid Serif';-inkscape-font-specification:'Droid Serif';letter-spacing:1px;fill:#ffffff"
       id="path4188" />
    <path
       d="m 60.461388,51.946548 -2.34375,-3.601074 0,2.890015 q 0,0.146484 0.03967,0.234985 0.04272,0.0885 0.109864,0.137329 0.07019,0.04578 0.164795,0.06104 0.0946,0.01526 0.198364,0.01526 l 0.0824,0 0,0.262451 -1.568603,0 0,-0.262451 0.07935,0 q 0.106811,0 0.198364,-0.01526 0.0946,-0.01526 0.164795,-0.06104 0.07019,-0.04883 0.109863,-0.137329 0.03967,-0.0885 0.03967,-0.234985 l 0,-3.063965 q 0,-0.137329 -0.04272,-0.219727 -0.03967,-0.08545 -0.109863,-0.131225 -0.07019,-0.04578 -0.164795,-0.05798 -0.09155,-0.01526 -0.195312,-0.01526 l -0.07935,0 0,-0.262451 1.144409,0 2.236939,3.454589 0,-2.767944 q 0,-0.137329 -0.04272,-0.219727 -0.03967,-0.08545 -0.109863,-0.131225 -0.07019,-0.04578 -0.164795,-0.05798 -0.09155,-0.01526 -0.195313,-0.01526 l -0.0824,0 0,-0.262451 1.568603,0 0,0.262451 -0.07934,0 q -0.106812,0 -0.201416,0.01526 -0.09155,0.01526 -0.161744,0.06409 -0.07019,0.04578 -0.109863,0.134278 -0.03967,0.0885 -0.03967,0.234985 l 0,3.75061 -0.445556,0 z"
       style="font-style:normal;font-variant:normal;font-weight:normal;font-stretch:normal;font-size:6.25px;font-family:'Droid Serif';-inkscape-font-specification:'Droid Serif';letter-spacing:1px;fill:#ffffff"
       id="path4190" />
    <path
       d="m 62.917076,51.946548 0,-0.262451 0.07935,0 q 0.106811,0 0.198364,-0.01526 0.09461,-0.01526 0.164795,-0.06104 0.07019,-0.04883 0.109863,-0.137329 0.03967,-0.0885 0.03967,-0.234985 l 0,-3.039551 q 0,-0.146484 -0.03967,-0.234985 -0.03967,-0.0885 -0.109863,-0.134278 -0.07019,-0.04883 -0.164795,-0.06409 -0.09155,-0.01526 -0.198364,-0.01526 l -0.07935,0 0,-0.262451 1.818848,0 0,0.262451 -0.0824,0 q -0.103759,0 -0.198364,0.01526 -0.0946,0.01526 -0.164795,0.06409 -0.06714,0.04578 -0.109863,0.134278 -0.03967,0.0885 -0.03967,0.234985 l 0,3.039551 q 0,0.146484 0.03967,0.234985 0.04272,0.0885 0.109863,0.137329 0.07019,0.04578 0.164795,0.06104 0.09461,0.01526 0.198364,0.01526 l 0.0824,0 0,0.262451 -1.818848,0 z"
       style="font-style:normal;font-variant:normal;font-weight:normal;font-stretch:normal;font-size:6.25px;font-family:'Droid Serif';-inkscape-font-specification:'Droid Serif';letter-spacing:1px;fill:#ffffff"
       id="path4192" />
    <path
       d="M 67.84774,51.946548 66.498863,48.07692 q -0.03357,-0.09766 -0.07324,-0.161744 -0.03967,-0.06409 -0.09155,-0.100708 -0.05188,-0.03662 -0.119018,-0.05188 -0.06714,-0.01526 -0.158692,-0.01526 l -0.0824,0 0,-0.262451 1.71814,0 0,0.262451 -0.143433,0 q -0.189209,0 -0.283814,0.07324 -0.09155,0.07019 -0.09155,0.22583 0,0.05188 0.01221,0.106812 0.01526,0.05493 0.03967,0.125122 l 0.686645,2.029419 q 0.09461,0.277709 0.161743,0.540161 0.06714,0.259399 0.119019,0.485229 0.04883,-0.22583 0.115967,-0.479126 0.06714,-0.253296 0.170898,-0.546264 l 0.689697,-1.986695 q 0.02441,-0.07629 0.03967,-0.146484 0.01526,-0.07019 0.01526,-0.122071 0,-0.161743 -0.10376,-0.231933 -0.100708,-0.07324 -0.308227,-0.07324 l -0.143433,0 0,-0.262451 1.522827,0 0,0.262451 -0.119018,0 q -0.09155,0 -0.158692,0.01831 -0.06409,0.01831 -0.119018,0.07324 -0.05188,0.05188 -0.09766,0.146485 -0.04578,0.0946 -0.09766,0.247192 l -1.293945,3.713989 -0.457764,0 z"
       style="font-style:normal;font-variant:normal;font-weight:normal;font-stretch:normal;font-size:6.25px;font-family:'Droid Serif';-inkscape-font-specification:'Droid Serif';letter-spacing:1px;fill:#ffffff"
       id="path4194" />
    <path
       d="m 72.659386,51.635269 1.205444,0 q 0.149536,0 0.253296,-0.03967 0.106811,-0.04272 0.177002,-0.112915 0.07019,-0.07019 0.109863,-0.161743 0.03967,-0.0946 0.05493,-0.198364 l 0.04272,-0.268555 0.326538,0 -0.04272,1.092529 -3.35083,0 0,-0.262451 0.07935,0 q 0.103759,0 0.195312,-0.01221 0.0946,-0.01526 0.164795,-0.05798 0.07019,-0.04272 0.109863,-0.125122 0.04272,-0.08545 0.04272,-0.222779 l 0,-3.070068 q 0,-0.146484 -0.03967,-0.234985 -0.03967,-0.0885 -0.109863,-0.134278 -0.07019,-0.04883 -0.164795,-0.06409 -0.09155,-0.01526 -0.198364,-0.01526 l -0.07935,0 0,-0.262451 3.149414,0 0.03052,1.092529 -0.323486,0 -0.03052,-0.268555 q -0.01221,-0.10376 -0.04883,-0.195312 -0.03357,-0.09461 -0.100708,-0.164795 -0.06409,-0.07019 -0.164795,-0.109864 -0.09766,-0.04272 -0.238037,-0.04272 l -1.049804,0 0,1.663208 1.507568,0 0,0.305176 -1.507568,0 0,1.870727 z"
       style="font-style:normal;font-variant:normal;font-weight:normal;font-stretch:normal;font-size:6.25px;font-family:'Droid Serif';-inkscape-font-specification:'Droid Serif';letter-spacing:1px;fill:#ffffff"
       id="path4196" />
    <path
       d="m 79.555382,51.183609 q 0.158691,0.250244 0.308227,0.375366 0.149536,0.125122 0.347901,0.125122 l 0.01831,0 0,0.262451 -0.0885,0 q -0.292968,0 -0.482177,-0.02136 -0.186158,-0.02136 -0.317383,-0.0824 -0.131226,-0.06104 -0.22583,-0.170899 -0.09155,-0.109863 -0.198365,-0.286865 l -0.845337,-1.40686 -0.518798,0 0,1.287841 q 0,0.13733 0.03967,0.222779 0.04272,0.0824 0.112915,0.125122 0.07019,0.04272 0.161743,0.05798 0.0946,0.01221 0.198364,0.01221 l 0.0824,0 0,0.262451 -1.818847,0 0,-0.262451 0.07935,0 q 0.10376,0 0.195313,-0.01221 0.0946,-0.01526 0.164795,-0.05798 0.07019,-0.04272 0.109863,-0.125122 0.04273,-0.08545 0.04273,-0.222779 l 0,-3.094482 q 0,-0.137329 -0.04273,-0.219727 -0.03967,-0.08545 -0.109863,-0.131225 -0.07019,-0.04578 -0.164795,-0.05798 -0.09155,-0.01526 -0.195313,-0.01526 l -0.07935,0 0,-0.262451 1.681518,0 q 0.811768,0 1.208496,0.302124 0.396729,0.299072 0.396729,0.90332 0,0.250244 -0.0824,0.439453 -0.07935,0.186157 -0.210571,0.323486 -0.131225,0.137329 -0.29602,0.228882 -0.164795,0.09155 -0.32959,0.146485 l 0.857544,1.35498 z m -2.001953,-1.498413 0.439453,0 q 0.274658,0 0.457763,-0.06103 0.183106,-0.06104 0.292969,-0.183106 0.109863,-0.12207 0.15564,-0.305175 0.04883,-0.183106 0.04883,-0.427247 0,-0.250244 -0.05188,-0.424194 -0.05188,-0.177002 -0.167847,-0.286865 -0.115966,-0.112915 -0.302124,-0.161743 -0.183105,-0.05188 -0.448608,-0.05188 l -0.424194,0 0,1.901245 z"
       style="font-style:normal;font-variant:normal;font-weight:normal;font-stretch:normal;font-size:6.25px;font-family:'Droid Serif';-inkscape-font-specification:'Droid Serif';letter-spacing:1px;fill:#ffffff"
       id="path4198" />
    <path
       d="m 82.737389,52.007584 q -0.305176,0 -0.540162,-0.06409 -0.231933,-0.06409 -0.390625,-0.177002 -0.155639,-0.115967 -0.234985,-0.27771 -0.07935,-0.164795 -0.07935,-0.360108 0,-0.189209 0.115967,-0.305175 0.119019,-0.115967 0.335694,-0.115967 0.0092,0.195312 0.05798,0.375366 0.05188,0.180054 0.152588,0.317383 0.100708,0.137329 0.256348,0.219726 0.155639,0.0824 0.375366,0.0824 0.421142,0 0.656128,-0.201416 0.238037,-0.204468 0.238037,-0.585938 0,-0.170898 -0.04883,-0.302124 -0.04883,-0.131225 -0.161744,-0.241089 -0.112915,-0.112915 -0.299072,-0.213623 -0.183105,-0.103759 -0.457763,-0.216674 -0.289917,-0.119019 -0.506592,-0.253296 -0.216675,-0.137329 -0.360108,-0.302124 -0.143432,-0.167847 -0.213623,-0.372315 -0.07019,-0.204468 -0.07019,-0.460815 0,-0.268555 0.100708,-0.479126 0.10376,-0.210571 0.286865,-0.354004 0.183106,-0.146484 0.43335,-0.222778 0.250244,-0.07629 0.546264,-0.07629 0.280762,0 0.497437,0.05798 0.216675,0.05798 0.366211,0.15564 0.149536,0.09766 0.22583,0.22583 0.07935,0.125122 0.07935,0.262451 0,0.201416 -0.134278,0.305176 -0.131225,0.100708 -0.357055,0.100708 0,-0.146485 -0.03662,-0.286866 -0.03357,-0.143432 -0.115966,-0.253295 -0.0824,-0.112915 -0.216675,-0.183106 -0.134277,-0.07019 -0.332642,-0.07019 -0.180053,0 -0.323486,0.05188 -0.140381,0.04883 -0.238037,0.143432 -0.09766,0.09155 -0.149536,0.222779 -0.05188,0.131225 -0.05188,0.292968 0,0.186157 0.04883,0.32959 0.04883,0.140381 0.161743,0.256348 0.115967,0.112915 0.302124,0.216675 0.186157,0.100708 0.457764,0.210571 0.274658,0.112915 0.488281,0.238037 0.216675,0.125122 0.366211,0.280762 0.149536,0.152588 0.228882,0.344848 0.07935,0.189209 0.07935,0.430298 0,0.296021 -0.109864,0.531006 -0.106811,0.231934 -0.308227,0.393677 -0.201416,0.161743 -0.48523,0.247192 -0.283813,0.0824 -0.634765,0.0824 z"
       style="font-style:normal;font-variant:normal;font-weight:normal;font-stretch:normal;font-size:6.25px;font-family:'Droid Serif';-inkscape-font-specification:'Droid Serif';letter-spacing:1px;fill:#ffffff"
       id="path4200" />
    <path
       d="m 85.836998,51.946548 0,-0.262451 0.07935,0 q 0.106811,0 0.198364,-0.01526 0.0946,-0.01526 0.164795,-0.06104 0.07019,-0.04883 0.109863,-0.137329 0.03967,-0.0885 0.03967,-0.234985 l 0,-3.039551 q 0,-0.146484 -0.03967,-0.234985 -0.03967,-0.0885 -0.109863,-0.134278 -0.07019,-0.04883 -0.164795,-0.06409 -0.09155,-0.01526 -0.198364,-0.01526 l -0.07935,0 0,-0.262451 1.818848,0 0,0.262451 -0.0824,0 q -0.10376,0 -0.198364,0.01526 -0.09461,0.01526 -0.164795,0.06409 -0.06714,0.04578 -0.109863,0.134278 -0.03967,0.0885 -0.03967,0.234985 l 0,3.039551 q 0,0.146484 0.03967,0.234985 0.04272,0.0885 0.109863,0.137329 0.07019,0.04578 0.164795,0.06104 0.0946,0.01526 0.198364,0.01526 l 0.0824,0 0,0.262451 -1.818848,0 z"
       style="font-style:normal;font-variant:normal;font-weight:normal;font-stretch:normal;font-size:6.25px;font-family:'Droid Serif';-inkscape-font-specification:'Droid Serif';letter-spacing:1px;fill:#ffffff"
       id="path4202" />
    <path
       d="m 93.080894,49.70961 q 0,0.512695 -0.128173,0.927734 -0.128174,0.411988 -0.38147,0.704956 -0.253296,0.289917 -0.634766,0.448609 -0.381469,0.155639 -0.891113,0.155639 l -1.913452,0 0,-0.262451 0.07935,0 q 0.106811,0 0.198364,-0.01526 0.0946,-0.01526 0.164795,-0.06104 0.07019,-0.04883 0.109863,-0.137329 0.03967,-0.0885 0.03967,-0.234985 l 0,-3.063965 q 0,-0.137329 -0.04273,-0.219727 -0.03967,-0.08545 -0.109863,-0.131225 -0.07019,-0.04578 -0.164795,-0.05798 -0.09155,-0.01526 -0.195312,-0.01526 l -0.07935,0 0,-0.262451 1.913452,0 q 0.482178,0 0.860596,0.149536 0.378418,0.146484 0.637817,0.430298 0.262451,0.283813 0.39978,0.698852 0.137329,0.415039 0.137329,0.946045 z m -2.182006,1.919556 q 0.372314,0 0.650024,-0.125122 0.280762,-0.128174 0.466919,-0.372315 0.186157,-0.24414 0.27771,-0.601196 0.0946,-0.357056 0.0946,-0.820923 0,-0.930786 -0.372314,-1.422119 -0.369263,-0.491333 -1.11084,-0.491333 l -0.549316,0 0,3.833008 0.543213,0 z"
       style="font-style:normal;font-variant:normal;font-weight:normal;font-stretch:normal;font-size:6.25px;font-family:'Droid Serif';-inkscape-font-specification:'Droid Serif';letter-spacing:1px;fill:#ffffff"
       id="path4204" />
    <path
       d="m 95.576256,50.454239 -0.238037,0.656128 q -0.02747,0.07324 -0.04272,0.146484 -0.01526,0.07019 -0.01526,0.122071 0,0.158691 0.100708,0.231933 0.10376,0.07324 0.314331,0.07324 l 0.143433,0 0,0.262451 -1.525879,0 0,-0.262451 0.119019,0 q 0.09155,0 0.155639,-0.01831 0.06409,-0.02136 0.115967,-0.07629 0.05188,-0.05493 0.09766,-0.149536 0.04883,-0.09461 0.106812,-0.244141 l 1.385498,-3.710937 0.488281,0 1.412964,3.866577 q 0.03662,0.09766 0.07324,0.161743 0.03967,0.06409 0.09155,0.10376 0.05188,0.03662 0.119018,0.05188 0.06714,0.01526 0.158692,0.01526 l 0.0824,0 0,0.262451 -1.718139,0 0,-0.262451 0.143432,0 q 0.375367,0 0.375367,-0.299072 0,-0.05188 -0.01526,-0.106811 -0.01221,-0.05493 -0.03662,-0.125123 l -0.250244,-0.698852 -1.641846,0 z m 1.141357,-1.40686 q -0.09766,-0.27771 -0.180053,-0.518799 -0.07935,-0.244141 -0.131226,-0.469971 -0.02136,0.112915 -0.05188,0.219727 -0.02747,0.103759 -0.06104,0.213623 -0.03357,0.109863 -0.07629,0.231933 -0.04272,0.119019 -0.09766,0.265503 l -0.424195,1.150513 1.409912,0 -0.387573,-1.092529 z"
       style="font-style:normal;font-variant:normal;font-weight:normal;font-stretch:normal;font-size:6.25px;font-family:'Droid Serif';-inkscape-font-specification:'Droid Serif';letter-spacing:1px;fill:#ffffff"
       id="path4206" />
    <path
       d="m 103.90658,49.70961 q 0,0.512695 -0.12818,0.927734 -0.12817,0.411988 -0.38147,0.704956 -0.25329,0.289917 -0.63476,0.448609 -0.38147,0.155639 -0.89111,0.155639 l -1.913457,0 0,-0.262451 0.07935,0 q 0.10681,0 0.19836,-0.01526 0.0946,-0.01526 0.1648,-0.06104 0.0702,-0.04883 0.10986,-0.137329 0.0397,-0.0885 0.0397,-0.234985 l 0,-3.063965 q 0,-0.137329 -0.0427,-0.219727 -0.0397,-0.08545 -0.10986,-0.131225 -0.0702,-0.04578 -0.1648,-0.05798 -0.0915,-0.01526 -0.19531,-0.01526 l -0.07935,0 0,-0.262451 1.913457,0 q 0.48217,0 0.86059,0.149536 0.37842,0.146484 0.63782,0.430298 0.26245,0.283813 0.39978,0.698852 0.13733,0.415039 0.13733,0.946045 z m -2.18201,1.919556 q 0.37232,0 0.65003,-0.125122 0.28076,-0.128174 0.46691,-0.372315 0.18616,-0.24414 0.27771,-0.601196 0.0946,-0.357056 0.0946,-0.820923 0,-0.930786 -0.37232,-1.422119 -0.36926,-0.491333 -1.11084,-0.491333 l -0.54931,0 0,3.833008 0.54321,0 z"
       style="font-style:normal;font-variant:normal;font-weight:normal;font-stretch:normal;font-size:6.25px;font-family:'Droid Serif';-inkscape-font-specification:'Droid Serif';letter-spacing:1px;fill:#ffffff"
       id="path4208" />
    <path
       d="m 106.72237,51.635269 1.20545,0 q 0.14953,0 0.25329,-0.03967 0.10682,-0.04272 0.17701,-0.112915 0.0702,-0.07019 0.10986,-0.161743 0.0397,-0.0946 0.0549,-0.198364 l 0.0427,-0.268555 0.32653,0 -0.0427,1.092529 -3.35083,0 0,-0.262451 0.0793,0 q 0.10376,0 0.19532,-0.01221 0.0946,-0.01526 0.16479,-0.05798 0.0702,-0.04272 0.10987,-0.125122 0.0427,-0.08545 0.0427,-0.222779 l 0,-3.070068 q 0,-0.146484 -0.0397,-0.234985 -0.0397,-0.0885 -0.10987,-0.134278 -0.0702,-0.04883 -0.16479,-0.06409 -0.0915,-0.01526 -0.19837,-0.01526 l -0.0793,0 0,-0.262451 3.14941,0 0.0305,1.092529 -0.32349,0 -0.0305,-0.268555 q -0.0122,-0.10376 -0.0488,-0.195312 -0.0336,-0.09461 -0.10071,-0.164795 -0.0641,-0.07019 -0.16479,-0.109864 -0.0977,-0.04272 -0.23804,-0.04272 l -1.04981,0 0,1.663208 1.50757,0 0,0.305176 -1.50757,0 0,1.870727 z"
       style="font-style:normal;font-variant:normal;font-weight:normal;font-stretch:normal;font-size:6.25px;font-family:'Droid Serif';-inkscape-font-specification:'Droid Serif';letter-spacing:1px;fill:#ffffff"
       id="path4210" />
  </g>
  <g
     style="font-style:normal;font-weight:normal;font-size:158.49095154px;line-height:125%;font-family:sans-serif;letter-spacing:0px;word-spacing:0px;fill:#000000;fill-opacity:1;stroke:none;stroke-width:1px;stroke-linecap:butt;stroke-linejoin:miter;stroke-opacity:1"
     id="text4136-9">
    <path
       d="m 55.597912,57.276058 q 0,0.512696 -0.128174,0.927735 -0.128174,0.411987 -0.38147,0.704956 -0.253296,0.289917 -0.634765,0.448608 -0.38147,0.15564 -0.891114,0.15564 l -1.913452,0 0,-0.262451 0.07935,0 q 0.106811,0 0.198364,-0.01526 0.0946,-0.01526 0.164795,-0.06103 0.07019,-0.04883 0.109863,-0.13733 0.03967,-0.0885 0.03967,-0.234985 l 0,-3.063965 q 0,-0.137329 -0.04272,-0.219726 -0.03967,-0.08545 -0.109864,-0.131226 -0.07019,-0.04578 -0.164795,-0.05798 -0.09155,-0.01526 -0.195312,-0.01526 l -0.07935,0 0,-0.262451 1.913452,0 q 0.482178,0 0.860596,0.149536 0.378418,0.146484 0.637817,0.430298 0.262452,0.283813 0.399781,0.698852 0.137329,0.415039 0.137329,0.946045 z m -2.182007,1.919556 q 0.372314,0 0.650024,-0.125122 0.280762,-0.128174 0.466919,-0.372315 0.186158,-0.24414 0.27771,-0.601196 0.09461,-0.357056 0.09461,-0.820923 0,-0.930786 -0.372315,-1.422119 -0.369262,-0.491333 -1.110839,-0.491333 l -0.549317,0 0,3.833008 0.543213,0 z"
       style="font-style:normal;font-variant:normal;font-weight:normal;font-stretch:normal;font-size:6.25px;font-family:'Droid Serif';-inkscape-font-specification:'Droid Serif';letter-spacing:1px;fill:#ffffff"
       id="path4167" />
    <path
       d="m 58.413708,59.201717 1.205444,0 q 0.149536,0 0.253296,-0.03967 0.106811,-0.04272 0.177002,-0.112916 0.07019,-0.07019 0.109863,-0.161743 0.03967,-0.0946 0.05493,-0.198364 l 0.04272,-0.268555 0.326539,0 -0.04273,1.09253 -3.35083,0 0,-0.262451 0.07935,0 q 0.103759,0 0.195312,-0.01221 0.09461,-0.01526 0.164795,-0.05798 0.07019,-0.04272 0.109863,-0.125122 0.04272,-0.08545 0.04272,-0.222778 l 0,-3.070069 q 0,-0.146484 -0.03967,-0.234985 -0.03967,-0.0885 -0.109863,-0.134277 -0.07019,-0.04883 -0.164795,-0.06409 -0.09155,-0.01526 -0.198364,-0.01526 l -0.07935,0 0,-0.262451 3.149414,0 0.03052,1.092529 -0.323486,0 -0.03052,-0.268555 q -0.01221,-0.103759 -0.04883,-0.195312 -0.03357,-0.09461 -0.100708,-0.164795 -0.06409,-0.07019 -0.164794,-0.109863 -0.09766,-0.04272 -0.238038,-0.04272 l -1.049804,0 0,1.663208 1.507568,0 0,0.305176 -1.507568,0 0,1.870727 z"
       style="font-style:normal;font-variant:normal;font-weight:normal;font-stretch:normal;font-size:6.25px;font-family:'Droid Serif';-inkscape-font-specification:'Droid Serif';letter-spacing:1px;fill:#ffffff"
       id="path4169" />
    <path
       d="m 66.013683,59.574032 q -0.305175,0 -0.540161,-0.06409 -0.231933,-0.06409 -0.390625,-0.177002 -0.155639,-0.115967 -0.234985,-0.27771 -0.07935,-0.164795 -0.07935,-0.360107 0,-0.189209 0.115967,-0.305176 0.119018,-0.115967 0.335693,-0.115967 0.0092,0.195313 0.05798,0.375366 0.05188,0.180054 0.152588,0.317383 0.100708,0.137329 0.256347,0.219727 0.15564,0.0824 0.375366,0.0824 0.421143,0 0.656128,-0.201416 0.238037,-0.204468 0.238037,-0.585937 0,-0.170899 -0.04883,-0.302124 -0.04883,-0.131226 -0.161743,-0.241089 -0.112915,-0.112915 -0.299072,-0.213623 -0.183106,-0.10376 -0.457764,-0.216675 -0.289917,-0.119019 -0.506592,-0.253296 -0.216674,-0.137329 -0.360107,-0.302124 -0.143433,-0.167847 -0.213623,-0.372315 -0.07019,-0.204467 -0.07019,-0.460815 0,-0.268555 0.100708,-0.479126 0.103759,-0.210571 0.286865,-0.354004 0.183105,-0.146484 0.433349,-0.222778 0.250245,-0.07629 0.546265,-0.07629 0.280762,0 0.497437,0.05798 0.216674,0.05798 0.366211,0.15564 0.149536,0.09766 0.22583,0.22583 0.07935,0.125122 0.07935,0.262451 0,0.201416 -0.134277,0.305176 -0.131226,0.100708 -0.357056,0.100708 0,-0.146484 -0.03662,-0.286865 -0.03357,-0.143433 -0.115967,-0.253296 -0.0824,-0.112915 -0.216674,-0.183106 -0.134278,-0.07019 -0.332642,-0.07019 -0.180054,0 -0.323486,0.05188 -0.140381,0.04883 -0.238037,0.143432 -0.09766,0.09155 -0.149537,0.222779 -0.05188,0.131225 -0.05188,0.292968 0,0.186158 0.04883,0.32959 0.04883,0.140381 0.161743,0.256348 0.115967,0.112915 0.302124,0.216675 0.186157,0.100708 0.457764,0.210571 0.274658,0.112915 0.488281,0.238037 0.216675,0.125122 0.366211,0.280762 0.149536,0.152588 0.228882,0.344849 0.07934,0.189209 0.07934,0.430297 0,0.296021 -0.109863,0.531006 -0.106812,0.231934 -0.308228,0.393677 -0.201416,0.161743 -0.485229,0.247192 -0.283814,0.0824 -0.634766,0.0824 z"
       style="font-style:normal;font-variant:normal;font-weight:normal;font-stretch:normal;font-size:6.25px;font-family:'Droid Serif';-inkscape-font-specification:'Droid Serif';letter-spacing:1px;fill:#ffffff"
       id="path4171" />
    <path
       d="m 70.016613,58.020687 -0.238037,0.656128 q -0.02747,0.07324 -0.04273,0.146484 -0.01526,0.07019 -0.01526,0.122071 0,0.158691 0.100709,0.231933 0.103759,0.07324 0.314331,0.07324 l 0.143432,0 0,0.262451 -1.525879,0 0,-0.262451 0.119019,0 q 0.09155,0 0.155639,-0.01831 0.06409,-0.02136 0.115967,-0.07629 0.05188,-0.05493 0.09766,-0.149536 0.04883,-0.09461 0.106811,-0.244141 l 1.385498,-3.710937 0.488281,0 1.412964,3.866577 q 0.03662,0.09766 0.07324,0.161743 0.03967,0.06409 0.09155,0.10376 0.05188,0.03662 0.119019,0.05188 0.06714,0.01526 0.158691,0.01526 l 0.0824,0 0,0.262451 -1.71814,0 0,-0.262451 0.143433,0 q 0.375366,0 0.375366,-0.299073 0,-0.05188 -0.01526,-0.106811 -0.01221,-0.05493 -0.03662,-0.125122 l -0.250244,-0.698853 -1.641846,0 z m 1.141357,-1.40686 q -0.09766,-0.27771 -0.180053,-0.518799 -0.07935,-0.244141 -0.131226,-0.469971 -0.02136,0.112915 -0.05188,0.219727 -0.02747,0.10376 -0.06103,0.213623 -0.03357,0.109863 -0.07629,0.231933 -0.04272,0.119019 -0.09766,0.265503 l -0.424194,1.150513 1.409912,0 -0.387574,-1.092529 z"
       style="font-style:normal;font-variant:normal;font-weight:normal;font-stretch:normal;font-size:6.25px;font-family:'Droid Serif';-inkscape-font-specification:'Droid Serif';letter-spacing:1px;fill:#ffffff"
       id="path4173" />
    <path
       d="m 77.715221,59.512997 -2.34375,-3.601075 0,2.890015 q 0,0.146484 0.03967,0.234985 0.04273,0.0885 0.109864,0.13733 0.07019,0.04578 0.164794,0.06103 0.09461,0.01526 0.198365,0.01526 l 0.0824,0 0,0.262451 -1.568603,0 0,-0.262451 0.07935,0 q 0.106812,0 0.198365,-0.01526 0.0946,-0.01526 0.164795,-0.06103 0.07019,-0.04883 0.109863,-0.13733 0.03967,-0.0885 0.03967,-0.234985 l 0,-3.063965 q 0,-0.137329 -0.04273,-0.219726 -0.03967,-0.08545 -0.109863,-0.131226 -0.07019,-0.04578 -0.164795,-0.05798 -0.09155,-0.01526 -0.195313,-0.01526 l -0.07935,0 0,-0.262451 1.144409,0 2.236938,3.45459 0,-2.767945 q 0,-0.137329 -0.04272,-0.219726 -0.03967,-0.08545 -0.109864,-0.131226 -0.07019,-0.04578 -0.164794,-0.05798 -0.09155,-0.01526 -0.195313,-0.01526 l -0.0824,0 0,-0.262451 1.568603,0 0,0.262451 -0.07935,0 q -0.106811,0 -0.201416,0.01526 -0.09155,0.01526 -0.161743,0.06409 -0.07019,0.04578 -0.109863,0.134277 -0.03967,0.0885 -0.03967,0.234985 l 0,3.750611 -0.445557,0 z"
       style="font-style:normal;font-variant:normal;font-weight:normal;font-stretch:normal;font-size:6.25px;font-family:'Droid Serif';-inkscape-font-specification:'Droid Serif';letter-spacing:1px;fill:#ffffff"
       id="path4175" />
    <path
       d="m 82.157604,58.801937 q 0,0.146484 0.03967,0.234985 0.04273,0.0885 0.109863,0.13733 0.07019,0.04578 0.164795,0.06103 0.09461,0.01526 0.198365,0.01526 l 0.143432,0 0,0.262451 -1.94397,0 0,-0.262451 0.143433,0 q 0.10376,0 0.195313,-0.01221 0.0946,-0.01526 0.164794,-0.05798 0.07019,-0.04272 0.109864,-0.125122 0.04272,-0.08545 0.04272,-0.222778 l 0,-3.469849 -0.598144,0 q -0.137329,0 -0.231934,0.04272 -0.09155,0.03967 -0.152588,0.109863 -0.05798,0.07019 -0.0885,0.164795 -0.02747,0.09155 -0.03967,0.195312 l -0.03357,0.268555 -0.323486,0 0.03052,-1.092529 3.518677,0 0.03052,1.092529 -0.323487,0 -0.03052,-0.268555 q -0.01221,-0.103759 -0.04273,-0.195312 -0.03052,-0.09461 -0.0885,-0.164795 -0.05798,-0.07019 -0.152588,-0.109863 -0.0946,-0.04272 -0.234985,-0.04272 l -0.6073,0 0,3.439331 z"
       style="font-style:normal;font-variant:normal;font-weight:normal;font-stretch:normal;font-size:6.25px;font-family:'Droid Serif';-inkscape-font-specification:'Droid Serif';letter-spacing:1px;fill:#ffffff"
       id="path4177" />
    <path
       d="m 85.003918,59.512997 0,-0.262451 0.07935,0 q 0.106812,0 0.198365,-0.01526 0.0946,-0.01526 0.164795,-0.06103 0.07019,-0.04883 0.109863,-0.13733 0.03967,-0.0885 0.03967,-0.234985 l 0,-3.039551 q 0,-0.146484 -0.03967,-0.234985 -0.03967,-0.0885 -0.109863,-0.134277 -0.07019,-0.04883 -0.164795,-0.06409 -0.09155,-0.01526 -0.198365,-0.01526 l -0.07935,0 0,-0.262451 1.818847,0 0,0.262451 -0.0824,0 q -0.10376,0 -0.198364,0.01526 -0.09461,0.01526 -0.164795,0.06409 -0.06714,0.04578 -0.109864,0.134277 -0.03967,0.0885 -0.03967,0.234985 l 0,3.039551 q 0,0.146484 0.03967,0.234985 0.04272,0.0885 0.109864,0.13733 0.07019,0.04578 0.164795,0.06103 0.0946,0.01526 0.198364,0.01526 l 0.0824,0 0,0.262451 -1.818847,0 z"
       style="font-style:normal;font-variant:normal;font-weight:normal;font-stretch:normal;font-size:6.25px;font-family:'Droid Serif';-inkscape-font-specification:'Droid Serif';letter-spacing:1px;fill:#ffffff"
       id="path4179" />
    <path
       d="m 89.32423,58.020687 -0.238037,0.656128 q -0.02747,0.07324 -0.04272,0.146484 -0.01526,0.07019 -0.01526,0.122071 0,0.158691 0.100708,0.231933 0.103759,0.07324 0.314331,0.07324 l 0.143432,0 0,0.262451 -1.525879,0 0,-0.262451 0.119019,0 q 0.09155,0 0.15564,-0.01831 0.06409,-0.02136 0.115966,-0.07629 0.05188,-0.05493 0.09766,-0.149536 0.04883,-0.09461 0.106811,-0.244141 l 1.385498,-3.710937 0.488282,0 1.412963,3.866577 q 0.03662,0.09766 0.07324,0.161743 0.03967,0.06409 0.09155,0.10376 0.05188,0.03662 0.119019,0.05188 0.06714,0.01526 0.158691,0.01526 l 0.0824,0 0,0.262451 -1.71814,0 0,-0.262451 0.143433,0 q 0.375366,0 0.375366,-0.299073 0,-0.05188 -0.01526,-0.106811 -0.01221,-0.05493 -0.03662,-0.125122 l -0.250244,-0.698853 -1.641846,0 z m 1.141358,-1.40686 q -0.09766,-0.27771 -0.180054,-0.518799 -0.07935,-0.244141 -0.131226,-0.469971 -0.02136,0.112915 -0.05188,0.219727 -0.02747,0.10376 -0.06104,0.213623 -0.03357,0.109863 -0.07629,0.231933 -0.04272,0.119019 -0.09766,0.265503 l -0.424194,1.150513 1.409912,0 -0.387573,-1.092529 z"
       style="font-style:normal;font-variant:normal;font-weight:normal;font-stretch:normal;font-size:6.25px;font-family:'Droid Serif';-inkscape-font-specification:'Droid Serif';letter-spacing:1px;fill:#ffffff"
       id="path4181" />
    <path
       d="m 95.850964,59.574032 q -0.543213,0 -0.949097,-0.164795 -0.402832,-0.164795 -0.671387,-0.466919 -0.265503,-0.302124 -0.396728,-0.726318 -0.131226,-0.424195 -0.131226,-0.939942 0,-0.506592 0.137329,-0.927734 0.140381,-0.421143 0.415039,-0.723267 0.27771,-0.302124 0.686646,-0.46997 0.408935,-0.167847 0.949096,-0.167847 0.347901,0 0.604248,0.05493 0.2594,0.05188 0.430298,0.146485 0.173951,0.0946 0.2594,0.222778 0.08545,0.128174 0.08545,0.27771 0,0.100708 -0.04578,0.183106 -0.04578,0.07934 -0.125122,0.137329 -0.07629,0.05493 -0.183106,0.08545 -0.10376,0.03052 -0.22583,0.03052 0,-0.146485 -0.04273,-0.289917 -0.04272,-0.143433 -0.14038,-0.256348 -0.09766,-0.115967 -0.256348,-0.186157 -0.158692,-0.07324 -0.387573,-0.07324 -0.396729,0 -0.677491,0.131226 -0.27771,0.128174 -0.454712,0.378418 -0.177001,0.247192 -0.256347,0.613403 -0.07935,0.363159 -0.07935,0.83313 0,0.466919 0.0824,0.830078 0.0824,0.36316 0.268554,0.610352 0.186157,0.247192 0.482178,0.375366 0.296021,0.128174 0.723267,0.128174 0.180053,0 0.3479,-0.01831 0.170898,-0.01831 0.302124,-0.05798 l 0,-1.00708 q 0,-0.137329 -0.04273,-0.219727 -0.03967,-0.08545 -0.109863,-0.128173 -0.07019,-0.04578 -0.164795,-0.06104 -0.09155,-0.01526 -0.195312,-0.01526 l -0.02441,0 0,-0.262452 1.623535,0 0,0.262452 -0.02441,0 q -0.0885,0 -0.167847,0.01526 -0.07935,0.01526 -0.137329,0.06409 -0.05798,0.04578 -0.09155,0.137329 -0.03357,0.0885 -0.03357,0.234986 l 0,1.123047 q -0.314331,0.146484 -0.646973,0.216674 -0.332641,0.07019 -0.735473,0.07019 z"
       style="font-style:normal;font-variant:normal;font-weight:normal;font-stretch:normal;font-size:6.25px;font-family:'Droid Serif';-inkscape-font-specification:'Droid Serif';letter-spacing:1px;fill:#ffffff"
       id="path4183" />
    <path
       d="m 103.09486,57.276058 q 0,0.515747 -0.12817,0.939942 -0.12818,0.424194 -0.37842,0.726318 -0.25025,0.302124 -0.61646,0.466919 -0.36621,0.164795 -0.83923,0.164795 -0.49744,0 -0.8667,-0.164795 -0.369262,-0.164795 -0.613403,-0.466919 -0.24414,-0.302124 -0.366211,-0.726318 -0.12207,-0.427246 -0.12207,-0.946045 0,-0.518799 0.12207,-0.939942 0.122071,-0.424194 0.366211,-0.723266 0.244141,-0.299073 0.616453,-0.460816 0.37232,-0.164795 0.86975,-0.164795 0.47303,0 0.83618,0.164795 0.36316,0.161743 0.61341,0.463867 0.25024,0.299073 0.37842,0.723267 0.12817,0.421143 0.12817,0.942993 z m -3.237915,0 q 0,0.463867 0.06714,0.830078 0.07019,0.36316 0.222776,0.616455 0.15259,0.250245 0.39368,0.384522 0.24414,0.131225 0.59204,0.131225 0.3479,0 0.58899,-0.131225 0.24414,-0.134277 0.39368,-0.384522 0.15258,-0.253295 0.21972,-0.616455 0.0671,-0.366211 0.0671,-0.830078 0,-0.463867 -0.0671,-0.827026 -0.0671,-0.366211 -0.21972,-0.616455 -0.14954,-0.250244 -0.39063,-0.38147 -0.23804,-0.131226 -0.58594,-0.131226 -0.3479,0 -0.59204,0.131226 -0.24414,0.131226 -0.39978,0.38147 -0.152586,0.250244 -0.222776,0.616455 -0.06714,0.363159 -0.06714,0.827026 z"
       style="font-style:normal;font-variant:normal;font-weight:normal;font-stretch:normal;font-size:6.25px;font-family:'Droid Serif';-inkscape-font-specification:'Droid Serif';letter-spacing:1px;fill:#ffffff"
       id="path4185" />
  </g>
  <g
     style="font-style:normal;font-weight:normal;font-size:158.49095154px;line-height:125%;font-family:sans-serif;letter-spacing:0px;word-spacing:0px;fill:#000000;fill-opacity:1;stroke:none;stroke-width:1px;stroke-linecap:butt;stroke-linejoin:miter;stroke-opacity:1"
     id="text4136-2">
    <path
       d="m 55.558281,64.842445 q 0,0.512696 -0.128174,0.927735 -0.128174,0.411987 -0.38147,0.704956 -0.253296,0.289917 -0.634765,0.448608 -0.38147,0.15564 -0.891114,0.15564 l -1.913452,0 0,-0.262451 0.07935,0 q 0.106812,0 0.198364,-0.01526 0.0946,-0.01526 0.164795,-0.06104 0.07019,-0.04883 0.109863,-0.137329 0.03967,-0.0885 0.03967,-0.234986 l 0,-3.063965 q 0,-0.137329 -0.04272,-0.219726 -0.03967,-0.08545 -0.109864,-0.131226 -0.07019,-0.04578 -0.164794,-0.05798 -0.09155,-0.01526 -0.195313,-0.01526 l -0.07935,0 0,-0.262451 1.913452,0 q 0.482178,0 0.860596,0.149536 0.378418,0.146484 0.637818,0.430298 0.262451,0.283813 0.39978,0.698852 0.137329,0.41504 0.137329,0.946045 z m -2.182007,1.919556 q 0.372315,0 0.650025,-0.125122 0.280761,-0.128174 0.466918,-0.372314 0.186158,-0.244141 0.27771,-0.601197 0.09461,-0.357055 0.09461,-0.820923 0,-0.930786 -0.372315,-1.422119 -0.369262,-0.491333 -1.110839,-0.491333 l -0.549317,0 0,3.833008 0.543213,0 z"
       style="font-style:normal;font-variant:normal;font-weight:normal;font-stretch:normal;font-size:6.25px;font-family:'Droid Serif';-inkscape-font-specification:'Droid Serif';letter-spacing:1px;fill:#ffffff"
       id="path4142" />
    <path
       d="m 58.374077,66.768105 1.205444,0 q 0.149536,0 0.253296,-0.03967 0.106812,-0.04273 0.177002,-0.112915 0.07019,-0.07019 0.109863,-0.161744 0.03967,-0.0946 0.05493,-0.198364 l 0.04273,-0.268554 0.326538,0 -0.04273,1.092529 -3.35083,0 0,-0.262451 0.07935,0 q 0.103759,0 0.195312,-0.01221 0.09461,-0.01526 0.164795,-0.05798 0.07019,-0.04272 0.109863,-0.125122 0.04272,-0.08545 0.04272,-0.222778 l 0,-3.070069 q 0,-0.146484 -0.03967,-0.234985 -0.03967,-0.0885 -0.109863,-0.134277 -0.07019,-0.04883 -0.164795,-0.06409 -0.09155,-0.01526 -0.198364,-0.01526 l -0.07935,0 0,-0.262451 3.149414,0 0.03052,1.092529 -0.323487,0 -0.03052,-0.268554 q -0.01221,-0.10376 -0.04883,-0.195313 -0.03357,-0.0946 -0.100708,-0.164795 -0.06409,-0.07019 -0.164795,-0.109863 -0.09766,-0.04273 -0.238037,-0.04273 l -1.049805,0 0,1.663208 1.507568,0 0,0.305176 -1.507568,0 0,1.870728 z"
       style="font-style:normal;font-variant:normal;font-weight:normal;font-stretch:normal;font-size:6.25px;font-family:'Droid Serif';-inkscape-font-specification:'Droid Serif';letter-spacing:1px;fill:#ffffff"
       id="path4144" />
    <path
       d="m 66.791924,62.553627 q 0.320434,0 0.555419,0.05493 0.238038,0.05188 0.393677,0.146484 0.158692,0.09461 0.234986,0.222778 0.07935,0.128174 0.07935,0.27771 0,0.100708 -0.04272,0.183106 -0.03967,0.07935 -0.112915,0.137329 -0.07324,0.05493 -0.173951,0.08545 -0.09766,0.03052 -0.213623,0.03052 0,-0.146485 -0.03967,-0.289917 -0.03662,-0.143433 -0.125123,-0.256348 -0.08545,-0.115967 -0.22583,-0.186157 -0.137329,-0.07324 -0.341797,-0.07324 -0.354003,0 -0.601196,0.131225 -0.247192,0.128174 -0.402832,0.378418 -0.155639,0.247193 -0.22583,0.613403 -0.07019,0.36316 -0.07019,0.83313 0,0.418091 0.07324,0.765992 0.07324,0.3479 0.231933,0.598144 0.158692,0.247192 0.402832,0.384522 0.247193,0.137329 0.592041,0.137329 0.228882,0 0.402833,-0.04273 0.177001,-0.04578 0.311279,-0.119018 0.134277,-0.07324 0.234985,-0.167847 0.10376,-0.09766 0.183106,-0.201416 0.05188,0.03357 0.08545,0.09155 0.03357,0.05798 0.03357,0.152587 0,0.119019 -0.0824,0.244141 -0.07935,0.12207 -0.244141,0.222778 -0.164795,0.100708 -0.418091,0.167847 -0.253296,0.06409 -0.601196,0.06409 -0.466919,0 -0.820923,-0.164795 -0.354004,-0.164795 -0.595093,-0.466919 -0.238037,-0.302124 -0.360107,-0.726318 -0.12207,-0.424195 -0.12207,-0.939942 0,-0.506591 0.128173,-0.927734 0.128174,-0.421143 0.378418,-0.723267 0.253296,-0.302124 0.628663,-0.46997 0.375366,-0.167847 0.869751,-0.167847 z"
       style="font-style:normal;font-variant:normal;font-weight:normal;font-stretch:normal;font-size:6.25px;font-family:'Droid Serif';-inkscape-font-specification:'Droid Serif';letter-spacing:1px;fill:#ffffff"
       id="path4146" />
    <path
       d="m 73.544487,64.842445 q 0,0.515747 -0.128174,0.939942 -0.128174,0.424194 -0.378418,0.726318 -0.250244,0.302124 -0.616455,0.466919 -0.366211,0.164795 -0.839233,0.164795 -0.497437,0 -0.866699,-0.164795 -0.369263,-0.164795 -0.613404,-0.466919 -0.24414,-0.302124 -0.366211,-0.726318 -0.12207,-0.427246 -0.12207,-0.946045 0,-0.518799 0.12207,-0.939942 0.122071,-0.424194 0.366211,-0.723266 0.244141,-0.299072 0.616455,-0.460816 0.372315,-0.164795 0.869751,-0.164795 0.473023,0 0.836182,0.164795 0.363159,0.161744 0.613403,0.463868 0.250244,0.299072 0.378418,0.723266 0.128174,0.421143 0.128174,0.942993 z m -3.237915,0 q 0,0.463868 0.06714,0.830078 0.07019,0.36316 0.222778,0.616456 0.152588,0.250244 0.393677,0.384521 0.24414,0.131226 0.592041,0.131226 0.3479,0 0.588989,-0.131226 0.244141,-0.134277 0.393677,-0.384521 0.152588,-0.253296 0.219726,-0.616456 0.06714,-0.36621 0.06714,-0.830078 0,-0.463867 -0.06714,-0.827026 -0.06714,-0.366211 -0.219726,-0.616455 -0.149536,-0.250244 -0.390625,-0.38147 -0.238037,-0.131225 -0.585938,-0.131225 -0.3479,0 -0.592041,0.131225 -0.24414,0.131226 -0.39978,0.38147 -0.152588,0.250244 -0.222778,0.616455 -0.06714,0.363159 -0.06714,0.827026 z"
       style="font-style:normal;font-variant:normal;font-weight:normal;font-stretch:normal;font-size:6.25px;font-family:'Droid Serif';-inkscape-font-specification:'Droid Serif';letter-spacing:1px;fill:#ffffff"
       id="path4148" />
    <path
       d="m 78.862724,67.079384 0,-0.262451 0.02136,0 q 0.100708,0 0.180053,-0.01221 0.0824,-0.01526 0.137329,-0.05493 0.05798,-0.04272 0.09155,-0.119019 0.03357,-0.07935 0.03967,-0.207519 l 0,-3.338623 -1.431274,3.994751 -0.338746,0 -1.449584,-3.982544 0,3.271484 q 0,0.146485 0.03052,0.234986 0.03052,0.0885 0.0885,0.137329 0.06104,0.04578 0.143433,0.06104 0.08545,0.01526 0.189209,0.01526 l 0.01831,0 0,0.262451 -1.443481,0 0,-0.262451 0.07935,0 q 0.10376,0 0.195313,-0.01221 0.0946,-0.01526 0.164795,-0.05798 0.07019,-0.04272 0.109863,-0.125122 0.04273,-0.08545 0.04273,-0.222778 l 0,-3.094483 q 0,-0.137329 -0.04273,-0.219726 -0.03967,-0.08545 -0.109863,-0.131226 -0.07019,-0.04578 -0.164795,-0.05798 -0.09155,-0.01526 -0.195313,-0.01526 l -0.07935,0 0,-0.262451 1.425171,0 1.293945,3.573608 1.281738,-3.573608 1.385498,0 0,0.262451 -0.07935,0 q -0.106812,0 -0.201416,0.01526 -0.09155,0.01526 -0.161744,0.06409 -0.07019,0.04578 -0.109863,0.134277 -0.03967,0.0885 -0.03967,0.234985 l 0,3.039551 q 0,0.146485 0.03967,0.234986 0.03967,0.0885 0.109863,0.137329 0.07019,0.04578 0.161744,0.06104 0.0946,0.01526 0.201416,0.01526 l 0.07935,0 0,0.262451 -1.663208,0 z"
       style="font-style:normal;font-variant:normal;font-weight:normal;font-stretch:normal;font-size:6.25px;font-family:'Droid Serif';-inkscape-font-specification:'Droid Serif';letter-spacing:1px;fill:#ffffff"
       id="path4150" />
    <path
       d="m 81.998955,67.079384 0,-0.262451 0.07935,0 q 0.106812,0 0.198365,-0.01526 0.0946,-0.01526 0.164795,-0.06104 0.07019,-0.04883 0.109863,-0.137329 0.03967,-0.0885 0.03967,-0.234986 l 0,-3.063965 q 0,-0.137329 -0.04273,-0.219726 -0.03967,-0.08545 -0.109863,-0.131226 -0.07019,-0.04578 -0.164795,-0.05798 -0.09155,-0.01526 -0.195313,-0.01526 l -0.07935,0 0,-0.262451 1.754761,0 q 0.393676,0 0.683593,0.09155 0.289917,0.0885 0.479126,0.259399 0.189209,0.167847 0.280762,0.408936 0.0946,0.241088 0.0946,0.546264 0,0.27771 -0.0885,0.534058 -0.08545,0.256348 -0.283813,0.454712 -0.198364,0.195312 -0.518799,0.314331 -0.320434,0.115967 -0.784302,0.115967 l -0.393676,0 0,1.055908 q 0,0.137329 0.03967,0.222778 0.04272,0.0824 0.112915,0.125122 0.07019,0.04273 0.161743,0.05798 0.0946,0.01221 0.198364,0.01221 l 0.207519,0 0,0.262451 -1.943969,0 z m 1.223755,-2.032471 0.332641,0 q 0.283814,0 0.48523,-0.05798 0.201416,-0.06103 0.32959,-0.192261 0.128173,-0.134277 0.186157,-0.341797 0.06104,-0.210571 0.06104,-0.506592 0,-0.262451 -0.05188,-0.454712 -0.05188,-0.195312 -0.167847,-0.323486 -0.115966,-0.128174 -0.302124,-0.189209 -0.183105,-0.06409 -0.448608,-0.06409 l -0.424194,0 0,2.130127 z"
       style="font-style:normal;font-variant:normal;font-weight:normal;font-stretch:normal;font-size:6.25px;font-family:'Droid Serif';-inkscape-font-specification:'Droid Serif';letter-spacing:1px;fill:#ffffff"
       id="path4152" />
    <path
       d="m 90.814507,64.842445 q 0,0.515747 -0.128174,0.939942 -0.128174,0.424194 -0.378418,0.726318 -0.250244,0.302124 -0.616455,0.466919 -0.366211,0.164795 -0.839234,0.164795 -0.497436,0 -0.866699,-0.164795 -0.369263,-0.164795 -0.613403,-0.466919 -0.244141,-0.302124 -0.366211,-0.726318 -0.122071,-0.427246 -0.122071,-0.946045 0,-0.518799 0.122071,-0.939942 0.12207,-0.424194 0.366211,-0.723266 0.24414,-0.299072 0.616455,-0.460816 0.372314,-0.164795 0.869751,-0.164795 0.473022,0 0.836181,0.164795 0.36316,0.161744 0.613404,0.463868 0.250244,0.299072 0.378418,0.723266 0.128174,0.421143 0.128174,0.942993 z m -3.237916,0 q 0,0.463868 0.06714,0.830078 0.07019,0.36316 0.222778,0.616456 0.152588,0.250244 0.393677,0.384521 0.244141,0.131226 0.592041,0.131226 0.347901,0 0.58899,-0.131226 0.24414,-0.134277 0.393676,-0.384521 0.152588,-0.253296 0.219727,-0.616456 0.06714,-0.36621 0.06714,-0.830078 0,-0.463867 -0.06714,-0.827026 -0.06714,-0.366211 -0.219727,-0.616455 -0.149536,-0.250244 -0.390625,-0.38147 -0.238037,-0.131225 -0.585937,-0.131225 -0.347901,0 -0.592041,0.131225 -0.244141,0.131226 -0.399781,0.38147 -0.152587,0.250244 -0.222778,0.616455 -0.06714,0.363159 -0.06714,0.827026 z"
       style="font-style:normal;font-variant:normal;font-weight:normal;font-stretch:normal;font-size:6.25px;font-family:'Droid Serif';-inkscape-font-specification:'Droid Serif';letter-spacing:1px;fill:#ffffff"
       id="path4154" />
    <path
       d="m 93.715752,67.140419 q -0.305176,0 -0.540161,-0.06409 -0.231934,-0.06409 -0.390625,-0.177002 -0.15564,-0.115967 -0.234986,-0.27771 -0.07935,-0.164795 -0.07935,-0.360107 0,-0.189209 0.115967,-0.305176 0.119019,-0.115967 0.335694,-0.115967 0.0092,0.195313 0.05798,0.375366 0.05188,0.180054 0.152588,0.317383 0.100708,0.137329 0.256348,0.219727 0.155639,0.0824 0.375366,0.0824 0.421142,0 0.656128,-0.201416 0.238037,-0.204468 0.238037,-0.585937 0,-0.170899 -0.04883,-0.302124 -0.04883,-0.131226 -0.161743,-0.241089 -0.112916,-0.112915 -0.299073,-0.213623 -0.183105,-0.10376 -0.457763,-0.216675 -0.289917,-0.119019 -0.506592,-0.253296 -0.216675,-0.137329 -0.360108,-0.302124 -0.143432,-0.167847 -0.213623,-0.372314 -0.07019,-0.204468 -0.07019,-0.460816 0,-0.268555 0.100708,-0.479126 0.10376,-0.210571 0.286865,-0.354004 0.183106,-0.146484 0.43335,-0.222778 0.250244,-0.07629 0.546264,-0.07629 0.280762,0 0.497437,0.05798 0.216675,0.05798 0.366211,0.15564 0.149536,0.09766 0.22583,0.22583 0.07935,0.125122 0.07935,0.262451 0,0.201416 -0.134278,0.305176 -0.131225,0.100708 -0.357055,0.100708 0,-0.146484 -0.03662,-0.286865 -0.03357,-0.143433 -0.115967,-0.253296 -0.0824,-0.112915 -0.216675,-0.183106 -0.134277,-0.07019 -0.332642,-0.07019 -0.180053,0 -0.323486,0.05188 -0.140381,0.04883 -0.238037,0.143433 -0.09766,0.09155 -0.149536,0.222778 -0.05188,0.131225 -0.05188,0.292969 0,0.186157 0.04883,0.329589 0.04883,0.140381 0.161743,0.256348 0.115967,0.112915 0.302124,0.216675 0.186157,0.100708 0.457764,0.210571 0.274658,0.112915 0.488281,0.238037 0.216675,0.125122 0.366211,0.280762 0.149536,0.152588 0.228882,0.344849 0.07935,0.189209 0.07935,0.430298 0,0.29602 -0.109864,0.531005 -0.106811,0.231934 -0.308227,0.393677 -0.201416,0.161743 -0.48523,0.247193 -0.283813,0.0824 -0.634765,0.0824 z"
       style="font-style:normal;font-variant:normal;font-weight:normal;font-stretch:normal;font-size:6.25px;font-family:'Droid Serif';-inkscape-font-specification:'Droid Serif';letter-spacing:1px;fill:#ffffff"
       id="path4156" />
    <path
       d="m 98.679985,66.368324 q 0,0.146485 0.03967,0.234986 0.04273,0.0885 0.109863,0.137329 0.07019,0.04578 0.164795,0.06104 0.09461,0.01526 0.198364,0.01526 l 0.143433,0 0,0.262451 -1.94397,0 0,-0.262451 0.143433,0 q 0.10376,0 0.195312,-0.01221 0.09461,-0.01526 0.164795,-0.05798 0.07019,-0.04272 0.109864,-0.125122 0.04272,-0.08545 0.04272,-0.222778 l 0,-3.469849 -0.598144,0 q -0.137329,0 -0.231934,0.04273 -0.09155,0.03967 -0.152588,0.109863 -0.05798,0.07019 -0.0885,0.164795 -0.02747,0.09155 -0.03967,0.195313 l -0.03357,0.268554 -0.323486,0 0.03052,-1.092529 3.518677,0 0.0305,1.092529 -0.323489,0 -0.03052,-0.268554 q -0.01221,-0.10376 -0.04273,-0.195313 -0.03052,-0.0946 -0.0885,-0.164795 -0.05798,-0.07019 -0.152588,-0.109863 -0.0946,-0.04273 -0.234985,-0.04273 l -0.6073,0 0,3.439331 z"
       style="font-style:normal;font-variant:normal;font-weight:normal;font-stretch:normal;font-size:6.25px;font-family:'Droid Serif';-inkscape-font-specification:'Droid Serif';letter-spacing:1px;fill:#ffffff"
       id="path4158" />
    <path
       d="m 102.75005,66.768105 1.20545,0 q 0.14953,0 0.25329,-0.03967 0.10682,-0.04273 0.17701,-0.112915 0.0702,-0.07019 0.10986,-0.161744 0.0397,-0.0946 0.0549,-0.198364 l 0.0427,-0.268554 0.32653,0 -0.0427,1.092529 -3.35083,0 0,-0.262451 0.0793,0 q 0.10376,0 0.19532,-0.01221 0.0946,-0.01526 0.16479,-0.05798 0.0702,-0.04272 0.10986,-0.125122 0.0427,-0.08545 0.0427,-0.222778 l 0,-3.070069 q 0,-0.146484 -0.0397,-0.234985 -0.0397,-0.0885 -0.10987,-0.134277 -0.0702,-0.04883 -0.16479,-0.06409 -0.0916,-0.01526 -0.19837,-0.01526 l -0.0793,0 0,-0.262451 3.14941,0 0.0305,1.092529 -0.32349,0 -0.0305,-0.268554 q -0.0122,-0.10376 -0.0488,-0.195313 -0.0336,-0.0946 -0.10071,-0.164795 -0.0641,-0.07019 -0.16479,-0.109863 -0.0977,-0.04273 -0.23804,-0.04273 l -1.04981,0 0,1.663208 1.50757,0 0,0.305176 -1.50757,0 0,1.870728 z"
       style="font-style:normal;font-variant:normal;font-weight:normal;font-stretch:normal;font-size:6.25px;font-family:'Droid Serif';-inkscape-font-specification:'Droid Serif';letter-spacing:1px;fill:#ffffff"
       id="path4160" />
    <path
       d="m 106.42034,67.079384 0,-0.262451 0.0794,0 q 0.10681,0 0.19836,-0.01526 0.0946,-0.01526 0.1648,-0.06104 0.0702,-0.04883 0.10986,-0.137329 0.0397,-0.0885 0.0397,-0.234986 l 0,-3.039551 q 0,-0.146484 -0.0397,-0.234985 -0.0397,-0.0885 -0.10986,-0.134277 -0.0702,-0.04883 -0.1648,-0.06409 -0.0915,-0.01526 -0.19836,-0.01526 l -0.0794,0 0,-0.262451 1.81885,0 0,0.262451 -0.0824,0 q -0.10376,0 -0.19836,0.01526 -0.0916,0.01221 -0.16175,0.05798 -0.0702,0.04578 -0.11291,0.131226 -0.0397,0.0824 -0.0397,0.219726 l 0,3.463746 1.23291,0 q 0.14038,0 0.23803,-0.04883 0.10071,-0.05188 0.1648,-0.131225 0.0641,-0.0824 0.0977,-0.183106 0.0366,-0.100708 0.0488,-0.201416 l 0.061,-0.466919 0.32654,0 -0.0427,1.342774 -3.35083,0 z"
       style="font-style:normal;font-variant:normal;font-weight:normal;font-stretch:normal;font-size:6.25px;font-family:'Droid Serif';-inkscape-font-specification:'Droid Serif';letter-spacing:1px;fill:#ffffff"
       id="path4162" />
    <path
       d="m 112.33978,65.587074 -0.23804,0.656128 q -0.0275,0.07324 -0.0427,0.146485 -0.0153,0.07019 -0.0153,0.12207 0,0.158691 0.10071,0.231933 0.10376,0.07324 0.31433,0.07324 l 0.14344,0 0,0.262451 -1.52588,0 0,-0.262451 0.11902,0 q 0.0915,0 0.15564,-0.01831 0.0641,-0.02136 0.11596,-0.07629 0.0519,-0.05493 0.0977,-0.149536 0.0488,-0.0946 0.10681,-0.244141 l 1.3855,-3.710937 0.48828,0 1.41296,3.866577 q 0.0366,0.09766 0.0733,0.161743 0.0397,0.06409 0.0915,0.10376 0.0519,0.03662 0.11902,0.05188 0.0671,0.01526 0.15869,0.01526 l 0.0824,0 0,0.262451 -1.71814,0 0,-0.262451 0.14343,0 q 0.37536,0 0.37536,-0.299073 0,-0.05188 -0.0152,-0.106811 -0.0122,-0.05493 -0.0366,-0.125122 l -0.25024,-0.698853 -1.64184,0 z m 1.14135,-1.40686 q -0.0976,-0.27771 -0.18005,-0.518799 -0.0794,-0.244141 -0.13123,-0.469971 -0.0214,0.112915 -0.0519,0.219727 -0.0275,0.10376 -0.061,0.213623 -0.0336,0.109863 -0.0763,0.231934 -0.0427,0.119018 -0.0976,0.265503 l -0.4242,1.150512 1.40992,0 -0.38758,-1.092529 z"
       style="font-style:normal;font-variant:normal;font-weight:normal;font-stretch:normal;font-size:6.25px;font-family:'Droid Serif';-inkscape-font-specification:'Droid Serif';letter-spacing:1px;fill:#ffffff"
       id="path4164" />
  </g>
</svg>
